<?xml version="1.0" standalone="no"?><!DOCTYPE svg PUBLIC "-//W3C//DTD SVG 1.1//EN" "http://www.w3.org/Graphics/SVG/1.1/DTD/svg11.dtd"><svg t="1540125355811" class="icon" style="" viewBox="0 0 1024 1024" version="1.1" xmlns="http://www.w3.org/2000/svg" p-id="1887" xmlns:xlink="http://www.w3.org/1999/xlink" width="200" height="200"><defs><style type="text/css"></style></defs><path d="M709.132 292.51c78.96 78.982 125.739 178.133 140.58 281.508 61.127-149.927 32.224-326.75-87.61-446.605C601.638-33.03 339.09-30.57 175.675 132.866c-22.302 22.262-41.448 46.41-57.725 71.828 192.319-99.726 432.44-70.925 591.182 87.816z m293.419 124.653a410.347 410.347 0 0 0-32.429-84.762C957.25 547.247 808.388 741.287 588.93 801.964c-109.135 30.195-219.172 22.712-316.377-14.452 98.312 125.514 266.4 186.026 432.072 140.232 221.753-61.332 355.118-289.934 297.927-510.58z m-815.479 28.432c30.174-109.196 93.433-200.867 175.797-267.058-159.48 24.414-298.625 140.703-344.46 306.374-61.332 221.756 67.85 447.917 288.54 505.13 30.01 7.789 60.225 11.93 90.112 12.914-179.446-115.1-270.665-337.943-209.989-557.36z" fill="#ffffff" p-id="1888"></path></svg>