<?xml version="1.0" standalone="no"?><!DOCTYPE svg PUBLIC "-//W3C//DTD SVG 1.1//EN" "http://www.w3.org/Graphics/SVG/1.1/DTD/svg11.dtd"><svg t="1539505054800" class="icon" style="" viewBox="0 0 1024 1024" version="1.1" xmlns="http://www.w3.org/2000/svg" p-id="2598" data-spm-anchor-id="a313x.7781069.0.i5" xmlns:xlink="http://www.w3.org/1999/xlink" width="200" height="200"><defs><style type="text/css"></style></defs><path d="M224 224v192h192V224H224z m0-64h192c35.3 0 64 28.7 64 64v192c0 35.3-28.7 64-64 64H224c-35.3 0-64-28.7-64-64V224c0-35.3 28.7-64 64-64z" fill="#333333" p-id="2599"></path><path d="M608 608v192h192V608H608z m0-64h192c35.3 0 64 28.7 64 64v192c0 35.3-28.7 64-64 64H608c-35.3 0-64-28.7-64-64V608c0-35.3 28.7-64 64-64z" fill="#0076FF" p-id="2600"></path><path d="M224 608v192h192V608H224z m0-64h192c35.3 0 64 28.7 64 64v192c0 35.3-28.7 64-64 64H224c-35.3 0-64-28.7-64-64V608c0-35.3 28.7-64 64-64zM608 224v192h192V224H608z m0-64h192c35.3 0 64 28.7 64 64v192c0 35.3-28.7 64-64 64H608c-35.3 0-64-28.7-64-64V224c0-35.3 28.7-64 64-64z" fill="#333333" p-id="2601"></path></svg>