<?xml version="1.0" standalone="no"?><!DOCTYPE svg PUBLIC "-//W3C//DTD SVG 1.1//EN" "http://www.w3.org/Graphics/SVG/1.1/DTD/svg11.dtd"><svg t="1539702434260" class="icon" style="" viewBox="0 0 1024 1024" version="1.1" xmlns="http://www.w3.org/2000/svg" p-id="1987" xmlns:xlink="http://www.w3.org/1999/xlink" width="200" height="200"><defs><style type="text/css"></style></defs><path d="M814.853609 244.325611 203.52537 244.325611l147.274228-147.274228-27.824719-27.824719L128.200824 264.00072l194.774055 194.774055 27.824719-27.824719-147.274228-147.274228 611.328239 0c48.314379 0 78.700433 30.142507 78.700433 78.700433l0 301.686017c0 29.93273 39.350217 26.220175 39.350217 0L932.904259 362.377284C932.904259 283.600103 893.13858 244.325611 814.853609 244.325611zM185.248098 265.399579l-1.397836-1.397836 1.397836-1.397836L185.248098 265.399579zM685.35114 590.498842l142.618185 152.264892L224.598314 742.763734c-48.052412 0-78.914304-34.977629-78.914304-83.600023L145.68401 357.076558c0-29.972639-39.136346-26.25599-39.136346 0l0 302.087153c0 79.012541 39.558971 124.046201 117.417223 123.351376-0.00614-5.143137 604.00546-0.401136 604.00546-0.401136l-142.618185 142.728702 27.67327 27.861558 193.718003-195.032952L713.025433 562.637284 685.35114 590.498842zM850.003154 756.269329l1.390673 1.400906-1.390673 1.399883L850.003154 756.269329z" p-id="1988" fill="#ffffff"></path></svg>