<?xml version="1.0" standalone="no"?><!DOCTYPE svg PUBLIC "-//W3C//DTD SVG 1.1//EN" "http://www.w3.org/Graphics/SVG/1.1/DTD/svg11.dtd"><svg t="1539697841703" class="icon" style="" viewBox="0 0 1024 1024" version="1.1" xmlns="http://www.w3.org/2000/svg" p-id="1932" xmlns:xlink="http://www.w3.org/1999/xlink" width="200" height="200"><defs><style type="text/css"></style></defs><path d="M127.798537 554.046075l85.334442 0 0-85.343652-85.334442 0L127.798537 554.046075zM127.798537 724.76817l85.334442 0 0-85.334442-85.334442 0L127.798537 724.76817zM127.798537 383.367981l85.334442 0 0-85.334442-85.334442 0L127.798537 383.367981zM298.521656 554.046075l597.45775 0 0-85.343652-597.45775 0L298.521656 554.046075zM298.521656 724.76817l597.45775 0 0-85.334442-597.45775 0L298.521656 724.76817zM298.521656 383.367981l597.45775 0 0-85.334442-597.45775 0L298.521656 383.367981z" p-id="1933" fill="#ffffff"></path></svg>