<?xml version="1.0" standalone="no"?><!DOCTYPE svg PUBLIC "-//W3C//DTD SVG 1.1//EN" "http://www.w3.org/Graphics/SVG/1.1/DTD/svg11.dtd"><svg t="1540300391799" class="icon" style="" viewBox="0 0 1024 1024" version="1.1" xmlns="http://www.w3.org/2000/svg" p-id="1799" xmlns:xlink="http://www.w3.org/1999/xlink" width="200" height="200"><defs><style type="text/css"></style></defs><path d="M512.1024 1010.688c-134.0416 0-260.096-51.9168-354.816-146.0224C62.464 770.4576 10.24 645.2224 10.24 512c0-133.2224 52.224-258.4576 146.944-352.768C252.0064 65.024 378.0608 13.312 512.1024 13.312 646.144 13.312 772.3008 65.1264 867.0208 159.232c195.6864 194.56 195.6864 510.8736 0 705.3312C772.3008 958.6688 646.144 1010.688 512.1024 1010.688z m0-932.4544c-116.6336 0-226.2016 45.056-308.6336 126.976-82.432 81.92-127.7952 190.7712-127.7952 306.688s45.4656 224.768 127.7952 306.688c82.432 81.8176 192.1024 126.976 308.6336 126.976 116.6336 0 226.304-45.1584 308.736-127.0784 170.1888-169.1648 170.1888-444.3136 0-613.376C738.4064 123.392 628.736 78.2336 512.1024 78.2336zM333.824 803.84c-42.2912 0-40.6528-46.592-40.6528-46.592S347.0336 648.192 512.1024 648.192c165.0688 0 242.0736 108.9536 242.0736 108.9536 0 46.8992-44.4416 46.592-44.4416 46.592s-78.336-93.3888-197.8368-93.3888C392.3968 710.3488 333.824 803.84 333.824 803.84z m32.4608-452.1984c-33.8944 0-61.44 27.4432-61.44 61.1328 0 33.6896 27.5456 61.1328 61.44 61.1328 33.9968 0 61.44-27.4432 61.44-61.1328 0-33.8944-27.5456-61.1328-61.44-61.1328z m314.7776 0c-33.8944 0-61.44 27.4432-61.44 61.1328 0 33.6896 27.5456 61.1328 61.44 61.1328s61.44-27.4432 61.44-61.1328c0.1024-33.8944-27.3408-61.1328-61.44-61.1328z" fill="#918aff" p-id="1800"></path></svg>