<?xml version="1.0" standalone="no"?><!DOCTYPE svg PUBLIC "-//W3C//DTD SVG 1.1//EN" "http://www.w3.org/Graphics/SVG/1.1/DTD/svg11.dtd"><svg t="1540476419052" class="icon" style="" viewBox="0 0 1024 1024" version="1.1" xmlns="http://www.w3.org/2000/svg" p-id="1887" xmlns:xlink="http://www.w3.org/1999/xlink" width="200" height="200"><defs><style type="text/css"></style></defs><path d="M510.238 4.399C233.571 4.399 7.21 230.761 7.21 507.427c0 276.661 226.362 503.023 503.028 503.023 276.661 0 503.023-226.362 503.023-503.023 0-276.668-226.362-503.028-503.023-503.028z m12.572 150.907c191.779 0 191.779 144.623 191.779 226.362 0 81.745-75.455 232.652-191.779 235.793-113.182 0-191.779-150.907-191.779-235.793 0.001-81.74 0.001-226.362 191.779-226.362z m-12.572 826.85c-144.623 0-276.667-66.026-364.695-169.769 12.574-31.441 28.293-66.026 50.303-84.886 47.156-37.73 188.631-100.608 188.631-100.608l88.03 169.774 15.721-40.873-25.152-50.303 50.303-50.299 50.303 50.299-22.011 53.446 12.578 40.874 91.172-166.627s141.475 62.877 188.636 100.608c22.004 15.716 37.725 44.015 47.157 69.161-84.884 110.039-220.071 179.204-370.977 179.204z m0 0z" fill="#E7EFFF" p-id="1888"></path></svg>